<svg version="1.1" id="Layer_1" xmlns="http://www.w3.org/2000/svg" xmlns:xlink="http://www.w3.org/1999/xlink" x="0px" y="0px"
	 width="100%" viewBox="0 0 566 440" enable-background="new 0 0 566 440" xml:space="preserve">
<path fill="#000000" opacity="1.000000" stroke="none" 
	d="
M356.000000,441.000000 
	C237.333359,441.000000 119.166725,441.000000 1.000063,441.000000 
	C1.000042,294.333405 1.000042,147.666794 1.000021,1.000142 
	C189.666565,1.000095 378.333130,1.000095 566.999756,1.000047 
	C566.999878,147.666519 566.999878,294.333038 566.999939,440.999786 
	C496.833344,441.000000 426.666656,441.000000 356.000000,441.000000 
M492.759399,107.701599 
	C492.759399,107.701599 492.862488,107.397324 493.124298,107.446930 
	C493.124298,107.446930 493.275269,107.227676 493.275269,107.227676 
	C493.275269,107.227676 493.123657,107.008911 493.652924,106.421745 
	C494.039764,105.732941 494.426636,105.044136 495.278748,104.030472 
	C495.586304,102.965691 495.893890,101.900917 496.545135,100.247528 
	C496.768951,99.605049 496.992798,98.962563 497.787476,97.916229 
	C498.705841,94.569115 499.624176,91.222000 500.731262,87.253540 
	C500.733521,86.821846 500.735809,86.390152 501.106323,85.323418 
	C500.985016,82.899948 500.863739,80.476471 500.800964,77.398003 
	C500.739868,76.966728 500.678802,76.535461 500.702576,75.456039 
	C500.381470,74.654854 500.060333,73.853668 499.730194,72.385788 
	C499.574677,71.973213 499.419189,71.560646 499.377625,70.506927 
	C498.954407,69.285728 498.531189,68.064529 497.996338,66.216599 
	C497.770508,65.860550 497.544647,65.504494 497.319305,64.534958 
	C496.832001,63.448879 496.344727,62.362801 495.758423,60.562206 
	C493.357635,57.222221 491.380920,53.448097 488.482758,50.617336 
	C475.886688,38.314278 453.586060,34.083920 434.739288,44.890873 
	C433.813629,45.583927 432.887970,46.276978 431.953064,47.042305 
	C431.953064,47.042305 432.024963,47.054138 431.387268,46.965485 
	C430.584442,47.631691 429.781616,48.297901 428.398346,49.124260 
	C427.908203,49.731815 427.418060,50.339371 426.993958,50.994480 
	C426.993958,50.994480 426.946747,50.928215 426.311646,51.124519 
	C424.608673,53.430588 422.905701,55.736656 420.726471,58.562061 
	C420.504364,58.971371 420.282257,59.380676 420.030396,59.679726 
	C420.030396,59.679726 420.084167,59.739712 419.594238,60.778839 
	C419.484192,61.145626 419.374146,61.512413 418.858917,61.937851 
	C418.583588,62.622650 418.308258,63.307446 417.836365,64.472343 
	C417.866638,64.642593 417.896912,64.812851 417.436157,65.464821 
	C416.701630,67.658669 415.967102,69.852516 414.840088,72.686913 
	C411.697266,82.463074 414.000214,91.580391 418.325348,101.148346 
	C418.679047,101.735359 419.032776,102.322365 419.455475,103.578094 
	C421.660431,106.335220 423.865387,109.092354 426.272430,112.344238 
	C426.559509,112.546211 426.846558,112.748177 427.313690,113.481079 
	C427.913574,113.889725 428.513458,114.298370 429.454254,115.183403 
	C429.773163,115.405052 430.092041,115.626709 430.646606,116.443779 
	C435.138885,118.716850 439.631165,120.989922 444.855560,123.645340 
	C447.252380,124.017807 449.649200,124.390274 452.711945,125.184227 
	C456.121582,125.041519 459.531189,124.898811 463.780029,124.718040 
	C464.876862,124.550606 465.973663,124.383163 467.367523,124.396378 
	C467.641815,124.358116 467.788300,124.200783 468.670227,123.798103 
	C469.496613,123.554062 470.322998,123.310020 471.340668,123.257278 
	C471.340668,123.257278 471.588806,123.148666 471.588806,123.148666 
	C471.588806,123.148666 471.607025,122.878281 472.385437,122.745796 
	C472.873047,122.560738 473.360687,122.375671 474.397003,122.243805 
	C475.171051,121.784027 475.945068,121.324249 477.477386,120.642723 
	C478.374695,120.093208 479.271973,119.543694 480.293365,119.215004 
	C480.293365,119.215004 480.529175,119.121094 480.529175,119.121094 
	C480.529175,119.121094 480.509064,118.867859 481.226715,118.474136 
	C481.876740,117.977310 482.526794,117.480492 483.239166,117.187447 
	C483.239166,117.187447 483.332550,116.908234 483.945068,116.564575 
	C484.610443,115.910889 485.275787,115.257195 486.330170,114.546539 
	C486.587921,114.408302 486.717102,114.192932 487.217621,113.745308 
	C487.388458,113.463997 487.559296,113.182686 487.840210,112.990265 
	C487.840210,112.990265 487.928467,112.879623 488.505463,112.750397 
	C488.948547,112.141357 489.391632,111.532310 490.335968,110.546738 
	C490.850769,109.895683 491.365570,109.244629 492.250580,108.537727 
	C492.494751,108.378159 492.575073,108.158630 492.759399,107.701599 
M422.056000,150.923157 
	C422.056000,150.923157 422.147247,150.900940 422.110016,150.226608 
	C421.442627,149.081619 420.775269,147.936646 420.051453,146.082062 
	C403.282959,112.238243 386.544952,78.379250 369.698212,44.574436 
	C368.038605,41.244286 365.712372,38.246361 363.430145,34.731781 
	C363.000854,34.720417 362.571564,34.709053 361.254730,34.321743 
	C344.510925,34.394875 327.767090,34.468010 310.190491,34.311222 
	C308.468567,34.370735 306.746643,34.430248 304.107086,34.275040 
	C274.949310,34.296787 245.790924,34.212135 216.634064,34.385365 
	C202.149216,34.471420 187.667160,35.030910 172.508820,35.410423 
	C169.489594,39.682045 165.853775,43.647198 163.553116,48.275963 
	C150.457413,74.623566 137.688705,101.133621 124.792442,127.580452 
	C112.113182,153.582230 99.620140,179.678619 86.557510,205.486557 
	C83.812347,210.910202 82.972908,215.197174 85.818039,220.733902 
	C93.702072,236.076492 101.139252,251.648697 108.982338,267.810211 
	C113.011314,275.863373 117.040283,283.916504 121.198883,292.631958 
	C122.141182,294.421783 123.083481,296.211639 124.133995,298.690796 
	C125.383278,300.829529 126.632561,302.968262 127.943100,305.066223 
	C127.943100,305.066223 127.875023,305.038330 127.934731,305.678467 
	C128.235275,306.241791 128.535828,306.805084 128.822861,308.109131 
	C129.494278,309.967133 129.993057,311.910645 130.864410,313.669617 
	C137.857788,327.786835 144.882492,341.888947 151.976852,355.955658 
	C157.045792,366.006348 162.237091,375.995331 167.392380,386.689240 
	C168.946152,391.322632 172.137619,393.272369 177.892242,392.723053 
	C188.255478,392.674377 198.618729,392.625671 209.909134,392.748718 
	C259.187866,392.743500 308.466614,392.751740 357.745331,392.697937 
	C360.560577,392.694855 363.457092,392.495422 366.157349,391.785156 
	C367.607544,391.403625 368.720245,389.739136 370.566956,388.614502 
	C370.950653,388.552551 371.334381,388.490601 372.169250,388.479553 
	C372.501648,388.405151 372.705231,388.201813 373.275909,387.402161 
	C376.191010,381.270172 379.106110,375.138153 382.257538,368.813324 
	C382.257538,368.813324 382.179382,368.518463 382.709290,367.977997 
	C384.255920,364.030914 385.802551,360.083832 387.829010,355.654358 
	C391.256287,348.118317 394.683563,340.582306 398.653625,332.548492 
	C399.352600,330.665527 400.051605,328.782532 401.125275,326.417267 
	C404.397491,318.607330 407.669708,310.797394 411.337128,302.408508 
	C412.552246,299.269714 413.767395,296.130920 415.436646,292.482269 
	C427.645264,267.792023 439.963470,243.154480 451.896576,218.331787 
	C453.118805,215.789337 452.522705,212.030685 451.862396,209.036606 
	C451.360077,206.759018 449.416504,204.799316 448.096405,202.085342 
	C447.686432,201.390854 447.276428,200.696365 446.842346,199.380417 
	C446.137299,198.148071 445.432251,196.915741 444.658752,195.227951 
	C444.658752,195.227951 444.268799,194.982895 444.196869,194.313721 
	C443.509430,193.190491 442.821991,192.067261 442.098633,190.257706 
	C441.199188,188.455444 440.299744,186.653183 439.336151,184.121613 
	C438.277924,182.232925 437.219696,180.344238 436.171783,177.883484 
	C435.773438,177.255280 435.375061,176.627075 435.005859,175.403305 
	C434.666199,174.937897 434.326569,174.472473 433.925507,173.322556 
	C432.939758,171.550797 431.954010,169.779037 430.920044,167.338959 
	C430.457672,166.584503 429.995300,165.830063 429.492432,164.486923 
	C428.985565,163.658432 428.478699,162.829941 427.933746,161.347092 
	C427.286194,160.233810 426.638611,159.120544 425.946747,157.354324 
	C425.291443,156.236404 424.636108,155.118484 423.936310,153.369873 
	C423.329712,152.530350 422.723114,151.690826 422.056000,150.923157 
M107.801842,371.291443 
	C121.018600,355.625763 122.482735,335.356781 111.494286,320.174286 
	C100.342049,304.765472 80.528641,298.452576 63.120090,305.595001 
	C37.414093,316.141693 28.414055,345.708801 46.081009,369.506622 
	C55.026611,381.556641 68.893784,386.820496 84.793800,383.897675 
	C93.713409,382.257996 100.800652,377.687256 107.801842,371.291443 
z"/>
<path fill="#B190C4" opacity="1.000000" stroke="none" 
	d="
M363.695557,35.094227 
	C365.712372,38.246361 368.038605,41.244286 369.698212,44.574436 
	C386.544952,78.379250 403.282959,112.238243 419.933167,146.759796 
	C418.755249,149.829147 419.566010,150.961197 422.147247,150.900940 
	C422.147247,150.900940 422.056000,150.923157 422.076172,151.231506 
	C422.724457,152.360077 423.352600,153.180328 423.980774,154.000580 
	C424.636108,155.118484 425.291443,156.236404 425.800354,157.916733 
	C426.426575,159.653244 427.199188,160.827347 427.971802,162.001450 
	C428.478699,162.829941 428.985565,163.658432 429.446564,165.149933 
	C429.923218,166.544373 430.445709,167.275818 430.968231,168.007278 
	C431.954010,169.779037 432.939758,171.550797 433.809723,173.861084 
	C434.121521,174.932693 434.549103,175.465790 434.976685,175.998871 
	C435.375061,176.627075 435.773438,177.255280 436.132141,178.626251 
	C436.172974,181.813065 435.181641,184.903854 439.400299,184.850922 
	C440.299744,186.653183 441.199188,188.455444 441.901184,190.848999 
	C442.558777,192.621170 443.413788,193.802032 444.268799,194.982895 
	C444.268799,194.982895 444.658752,195.227951 444.431824,195.646820 
	C445.092102,197.377762 445.979279,198.689819 446.866455,200.001877 
	C447.276428,200.696365 447.686432,201.390854 448.044800,202.771393 
	C445.499542,205.633209 443.103607,207.937729 440.473450,209.933609 
	C439.032928,211.026718 437.196899,211.598541 435.539215,212.405441 
	C435.026703,210.751678 434.604095,209.063095 433.980591,207.452286 
	C433.044373,205.033676 432.537079,201.227020 430.841522,200.557327 
	C426.076050,198.675140 420.806610,197.266602 415.717163,197.204269 
	C408.925049,197.121033 402.115265,198.482224 395.313049,199.223038 
	C395.634308,199.812820 395.955566,200.402618 396.276825,200.992401 
	C394.744232,203.160309 393.211609,205.328217 391.681335,207.479950 
	C391.683655,207.463791 391.694489,207.433121 391.615387,207.165955 
	C391.297394,206.620453 391.058472,206.342133 390.860046,206.074158 
	C390.900513,206.084518 390.874695,206.163956 390.901794,205.749619 
	C390.807068,202.906189 390.173798,200.363419 390.682495,198.074463 
	C391.457977,194.585068 393.900269,190.696304 386.979340,193.268661 
	C386.223328,193.549637 384.954468,192.450638 383.680115,191.742203 
	C380.983154,186.621078 378.532135,181.748169 376.075531,176.878052 
	C362.293152,149.555237 348.339020,122.316757 334.855194,94.847420 
	C331.778473,88.579491 327.400848,86.396484 321.003937,86.331345 
	C319.441132,82.929504 318.406982,79.435234 316.229309,76.938301 
	C309.469574,69.187561 307.747955,60.500927 309.514648,50.602077 
	C310.456146,45.326714 310.547943,39.899700 311.023285,34.541142 
	C327.767090,34.468010 344.510925,34.394875 361.862610,34.638374 
	C362.878876,35.001411 363.287201,35.047817 363.695557,35.094227 
M433.634430,190.108826 
	C433.855743,190.127975 434.077087,190.147125 434.298401,190.166275 
	C434.302307,190.040924 434.306213,189.915588 434.310120,189.790237 
	C434.087799,189.797882 433.865479,189.805527 433.634430,190.108826 
z"/>
<path fill="#402666" opacity="1.000000" stroke="none" 
	d="
M108.753036,267.130157 
	C101.139252,251.648697 93.702072,236.076492 85.818039,220.733902 
	C82.972908,215.197174 83.812347,210.910202 86.557510,205.486557 
	C99.620140,179.678619 112.113182,153.582230 124.792442,127.580452 
	C137.688705,101.133621 150.457413,74.623566 163.553116,48.275963 
	C165.853775,43.647198 169.489594,39.682045 172.903625,35.774750 
	C173.607300,38.449512 173.749496,40.797024 174.253708,43.064014 
	C176.489822,53.117844 178.569138,63.218204 181.225922,73.162613 
	C182.931793,79.547760 187.378464,83.587448 194.035583,85.183350 
	C197.219818,85.946686 200.231140,87.431419 203.196014,88.896896 
	C201.036972,93.010498 198.908813,96.769829 196.983551,100.630333 
	C183.702393,127.261345 170.384705,153.874664 157.249207,180.577499 
	C151.826584,191.600967 146.824173,202.831131 141.314621,214.077698 
	C137.113754,220.627304 132.889923,226.890030 129.424683,233.547577 
	C124.405617,243.190445 119.811623,253.062561 115.304092,262.958893 
	C113.901848,266.037506 111.836639,267.152679 108.753036,267.130157 
z"/>
<path fill="#3E2464" opacity="1.000000" stroke="none" 
	d="
M124.025772,298.001465 
	C123.083481,296.211639 122.141182,294.421783 121.291878,292.037964 
	C123.176117,287.319885 124.185997,282.532104 126.971573,279.252533 
	C129.941132,275.756348 134.691025,273.819366 138.467468,270.944000 
	C140.778046,269.184784 142.309372,266.463806 146.096573,267.492737 
	C147.054123,267.752899 149.186554,265.841339 149.896088,264.470673 
	C152.326752,259.775055 155.912125,257.119690 161.188171,256.820068 
	C161.179138,256.850800 161.127670,256.884583 161.094345,257.288452 
	C160.727631,261.408356 162.225830,263.918457 166.085480,265.295837 
	C175.880295,284.898132 185.396255,304.250763 195.104218,323.506592 
	C197.774216,328.802551 201.017944,333.809265 204.056229,339.200989 
	C204.738953,339.640564 205.363846,339.827789 206.454529,339.979645 
	C211.611099,340.065002 216.301910,340.185760 221.134674,340.632965 
	C221.607346,344.090729 222.653793,347.348358 222.127838,350.328461 
	C220.811539,357.786743 218.784988,365.119843 217.038376,372.501984 
	C215.545746,378.810577 215.593323,385.741455 209.702530,390.274780 
	C209.180756,390.676300 209.209122,391.792633 208.981964,392.576965 
	C198.618729,392.625671 188.255478,392.674377 177.262405,392.357178 
	C173.546310,389.998138 170.460052,388.004974 167.373795,386.011810 
	C162.237091,375.995331 157.045792,366.006348 151.976852,355.955658 
	C144.882492,341.888947 137.857788,327.786835 130.864410,313.669617 
	C129.993057,311.910645 129.494278,309.967133 128.818359,307.405945 
	C128.500900,306.147949 128.187958,305.593140 127.875015,305.038330 
	C127.875023,305.038330 127.943100,305.066223 127.940117,304.693054 
	C126.633347,302.213776 125.329559,300.107605 124.025772,298.001465 
z"/>
<path fill="#3D2162" opacity="1.000000" stroke="none" 
	d="
M209.445557,392.662842 
	C209.209122,391.792633 209.180756,390.676300 209.702530,390.274780 
	C215.593323,385.741455 215.545746,378.810577 217.038376,372.501984 
	C218.784988,365.119843 220.811539,357.786743 222.127838,350.328461 
	C222.653793,347.348358 221.607346,344.090729 221.599152,340.557556 
	C256.157928,340.079346 290.394287,340.023468 324.630310,339.888672 
	C327.423065,339.877686 330.213684,339.327454 333.001862,339.379517 
	C333.360718,340.807648 333.723022,341.884033 334.046204,343.422241 
	C334.355286,348.255371 334.703491,352.626648 335.035767,357.391235 
	C336.154877,360.945648 337.289886,364.106750 338.459534,367.480896 
	C338.494171,367.693939 338.743683,368.046265 338.791107,368.405090 
	C344.562622,379.196472 352.543274,386.332214 365.082916,387.057220 
	C366.742249,387.153137 368.352325,388.100525 369.985229,388.653564 
	C368.720245,389.739136 367.607544,391.403625 366.157349,391.785156 
	C363.457092,392.495422 360.560577,392.694855 357.745331,392.697937 
	C308.466614,392.751740 259.187866,392.743500 209.445557,392.662842 
z"/>
<path fill="#9C77B3" opacity="1.000000" stroke="none" 
	d="
M203.320770,88.589432 
	C200.231140,87.431419 197.219818,85.946686 194.035583,85.183350 
	C187.378464,83.587448 182.931793,79.547760 181.225922,73.162613 
	C178.569138,63.218204 176.489822,53.117844 174.253708,43.064014 
	C173.749496,40.797024 173.607300,38.449512 173.241150,35.757648 
	C187.667160,35.030910 202.149216,34.471420 216.634064,34.385365 
	C245.790924,34.212135 274.949310,34.296787 304.468933,34.700867 
	C302.524109,39.299019 299.820404,43.304729 297.986267,47.675358 
	C292.786469,60.066101 282.866577,70.455452 282.179932,84.854523 
	C283.428833,85.561836 284.715027,86.290276 285.623016,87.169571 
	C260.707214,87.362427 236.169479,87.368629 211.632355,87.496071 
	C208.860001,87.510468 206.091217,88.208435 203.320770,88.589432 
z"/>
<path fill="#3F2666" opacity="1.000000" stroke="none" 
	d="
M107.550705,371.541077 
	C100.800652,377.687256 93.713409,382.257996 84.793800,383.897675 
	C68.893784,386.820496 55.026611,381.556641 46.081009,369.506622 
	C28.414055,345.708801 37.414093,316.141693 63.120090,305.595001 
	C80.528641,298.452576 100.342049,304.765472 111.494286,320.174286 
	C122.482735,335.356781 121.018600,355.625763 107.550705,371.541077 
z"/>
<path fill="#AD8BC0" opacity="1.000000" stroke="none" 
	d="
M391.679016,207.496124 
	C393.211609,205.328217 394.744232,203.160309 396.276825,200.992401 
	C395.955566,200.402618 395.634308,199.812820 395.313049,199.223038 
	C402.115265,198.482224 408.925049,197.121033 415.717163,197.204269 
	C420.806610,197.266602 426.076050,198.675140 430.841522,200.557327 
	C432.537079,201.227020 433.044373,205.033676 433.980591,207.452286 
	C434.604095,209.063095 435.026703,210.751678 435.539215,212.405441 
	C437.196899,211.598541 439.032928,211.026718 440.473450,209.933609 
	C443.103607,207.937729 445.499542,205.633209 448.053680,203.077789 
	C449.416504,204.799316 451.360077,206.759018 451.862396,209.036606 
	C452.522705,212.030685 453.118805,215.789337 451.896576,218.331787 
	C439.963470,243.154480 427.645264,267.792023 414.930176,292.547333 
	C413.916199,291.403503 413.408661,290.194611 412.912811,288.651855 
	C412.933533,287.872711 412.942566,287.427399 413.179321,286.666992 
	C413.574585,284.229919 413.742157,282.108002 413.924622,279.550476 
	C413.930511,277.081635 413.921509,275.048309 413.936462,272.616882 
	C413.631653,270.482483 413.302917,268.746216 412.956421,266.618408 
	C412.642151,264.156128 412.345673,262.085388 412.224854,259.789368 
	C412.262024,258.710999 412.123505,257.857941 411.987549,256.606689 
	C411.957886,255.147186 411.925659,254.085922 411.863281,252.739609 
	C411.540649,251.974991 411.248260,251.495407 410.948059,250.682922 
	C410.921417,249.906464 410.902588,249.462875 410.904297,248.659561 
	C410.289917,247.189880 409.654938,246.079941 409.013611,244.728439 
	C409.007294,244.486893 408.982147,244.004272 408.968079,243.633270 
	C407.993042,241.476700 407.032074,239.691116 406.065796,237.543945 
	C406.016998,236.460403 405.973541,235.738464 405.862488,234.722183 
	C405.210785,233.929138 404.626770,233.430435 404.039490,232.610535 
	C404.017456,231.861420 403.998657,231.433548 403.901001,230.713333 
	C403.236816,229.915024 402.651520,229.409058 402.062256,228.676147 
	C402.058258,228.449219 402.021057,227.996826 401.995758,227.625122 
	C399.994781,224.148712 398.019135,221.044006 395.801086,217.936371 
	C395.558655,217.933456 395.080353,218.012848 395.062500,217.617218 
	C393.922791,213.979767 392.800903,210.737946 391.679016,207.496124 
z"/>
<path fill="#B595CA" opacity="1.000000" stroke="none" 
	d="
M500.738098,85.958458 
	C500.735809,86.390152 500.733521,86.821846 500.336517,87.725403 
	C499.033386,91.571533 498.125031,94.945816 497.216614,98.320084 
	C496.992798,98.962563 496.768951,99.605049 496.151794,100.711761 
	C495.443451,102.235771 495.128448,103.295555 494.813477,104.355339 
	C494.426636,105.044136 494.039764,105.732941 493.272949,106.708878 
	C492.893005,106.996010 492.862488,107.397324 492.862488,107.397324 
	C492.862488,107.397324 492.759399,107.701599 492.446167,107.825348 
	C491.902100,108.106476 491.817902,108.321304 491.880371,108.593575 
	C491.365570,109.244629 490.850769,109.895683 489.791901,110.792374 
	C488.808044,111.651871 488.368256,112.265747 487.928467,112.879623 
	C487.928467,112.879623 487.840210,112.990265 487.445618,112.882019 
	C480.853699,111.076317 476.676270,107.259529 474.217377,101.262581 
	C469.643494,90.107498 462.825165,80.511429 454.010620,72.217255 
	C450.672180,69.075897 447.315369,65.454330 445.450043,61.373714 
	C443.121582,56.279972 439.135071,53.505375 435.000702,50.491852 
	C433.807495,49.622131 433.006042,48.214920 432.024963,47.054131 
	C432.024963,47.054138 431.953064,47.042305 432.305847,47.075615 
	C433.467804,46.197529 434.276947,45.286125 435.086121,44.374725 
	C453.586060,34.083920 475.886688,38.314278 488.482758,50.617336 
	C491.380920,53.448097 493.357635,57.222221 495.774841,61.232872 
	C496.300415,62.985172 496.809631,64.066803 497.318848,65.148438 
	C497.544647,65.504494 497.770508,65.860550 497.961151,66.863235 
	C498.371857,68.722610 498.817749,69.935349 499.263672,71.148079 
	C499.419189,71.560646 499.574677,71.973213 499.561920,72.933296 
	C499.801666,74.355270 500.209686,75.229736 500.617706,76.104202 
	C500.678802,76.535461 500.739868,76.966728 500.571289,78.038673 
	C500.473785,81.105713 500.605957,83.532089 500.738098,85.958458 
z"/>
<path fill="#956FAB" opacity="1.000000" stroke="none" 
	d="
M400.750580,326.899567 
	C400.051605,328.782532 399.352600,330.665527 398.119690,332.587280 
	C395.847748,332.663544 393.954010,332.264099 392.399994,332.817871 
	C387.103821,334.705200 382.092865,337.925537 376.672272,338.825531 
	C363.500458,341.012421 350.207275,341.601990 337.649200,335.448242 
	C339.660828,331.661896 341.567566,328.218781 343.711395,324.969971 
	C344.274567,326.218292 344.600647,327.272308 344.921051,328.308044 
	C346.632446,327.924133 348.218262,327.220551 349.779907,327.270599 
	C371.001099,327.950378 380.271637,315.028259 381.868561,296.470184 
	C382.679749,287.043304 379.737701,278.122589 375.314026,270.319092 
	C373.471832,271.227875 371.697723,272.103088 369.967773,272.619324 
	C372.251526,268.142731 374.491119,264.025116 377.064758,259.835388 
	C378.974640,257.917236 380.550446,256.071198 382.263123,254.064774 
	C384.709930,257.808685 385.776642,262.823822 391.824310,261.825317 
	C397.548096,260.880341 399.538940,263.088318 396.261566,267.788452 
	C391.923157,274.010193 394.147614,280.576263 393.342499,286.943176 
	C393.233215,287.807373 394.858124,289.352325 395.995941,289.830658 
	C400.286804,291.634491 402.664673,295.355072 402.273163,300.029999 
	C402.165741,301.312256 402.138580,302.793396 402.667297,303.900146 
	C404.171295,307.048492 409.633514,309.969543 402.808777,313.218658 
	C404.318207,319.984833 399.852112,321.763550 394.631439,322.683655 
	C395.419861,326.883575 395.419861,326.883575 400.750580,326.899567 
z"/>
<path fill="#A17AB6" opacity="1.000000" stroke="none" 
	d="
M337.544281,335.791473 
	C350.207275,341.601990 363.500458,341.012421 376.672272,338.825531 
	C382.092865,337.925537 387.103821,334.705200 392.399994,332.817871 
	C393.954010,332.264099 395.847748,332.663544 397.848328,332.836182 
	C394.683563,340.582306 391.256287,348.118317 387.231201,355.927612 
	C380.719055,360.065369 380.092834,361.797180 382.179382,368.518463 
	C382.179382,368.518463 382.257538,368.813324 381.761414,368.914917 
	C380.107727,369.957062 378.911774,370.854828 377.802551,371.849304 
	C376.497437,373.019409 375.289703,375.271454 374.000641,375.300201 
	C370.412689,375.380157 366.743896,374.821747 363.216492,374.028656 
	C355.024689,372.186768 346.897217,370.058472 338.743683,368.046265 
	C338.743683,368.046265 338.494171,367.693939 338.795471,367.291687 
	C342.964600,361.459137 337.087219,360.014069 335.051697,356.997925 
	C334.703491,352.626648 334.355286,348.255371 334.246399,343.132263 
	C334.673981,340.970215 334.862305,339.560059 335.205536,337.906189 
	C336.088379,337.038818 336.816315,336.415161 337.544281,335.791473 
z"/>
<path fill="#381D5B" opacity="1.000000" stroke="none" 
	d="
M161.197189,256.789368 
	C155.912125,257.119690 152.326752,259.775055 149.896088,264.470673 
	C149.186554,265.841339 147.054123,267.752899 146.096573,267.492737 
	C142.309372,266.463806 140.778046,269.184784 138.467468,270.944000 
	C134.691025,273.819366 129.941132,275.756348 126.971573,279.252533 
	C124.185997,282.532104 123.176117,287.319885 121.227066,291.706848 
	C117.040283,283.916504 113.011314,275.863373 108.867691,267.470184 
	C111.836639,267.152679 113.901848,266.037506 115.304092,262.958893 
	C119.811623,253.062561 124.405617,243.190445 129.424683,233.547577 
	C132.889923,226.890030 137.113754,220.627304 141.440109,214.444183 
	C143.399048,218.196304 144.846161,221.724930 146.446991,225.182358 
	C151.331940,235.732758 156.276077,246.255722 161.197189,256.789368 
z"/>
<path fill="#AB88C1" opacity="1.000000" stroke="none" 
	d="
M415.232574,72.046356 
	C415.967102,69.852516 416.701630,67.658669 417.924286,65.441193 
	C419.318298,66.496178 420.224182,67.574791 421.299438,68.855064 
	C425.561798,64.449615 429.371307,65.994873 432.063843,69.740379 
	C435.993164,75.206238 439.249908,81.155197 442.800568,86.893738 
	C446.603210,93.039490 448.489868,100.479401 456.458862,103.611771 
	C459.524780,104.816895 462.286987,108.237442 463.913239,111.320709 
	C466.293518,115.833473 469.333496,119.114433 473.961517,121.184669 
	C473.832916,121.647270 473.807037,121.915695 473.848297,122.190613 
	C473.360687,122.375671 472.873047,122.560738 471.900574,122.763794 
	C471.415741,122.781799 471.149384,123.065971 471.149384,123.065979 
	C470.322998,123.310020 469.496613,123.554062 468.093353,123.832916 
	C467.296082,123.891808 467.147430,124.007805 467.070496,124.215729 
	C465.973663,124.383163 464.876862,124.550606 463.013306,124.558266 
	C458.846405,124.519913 455.446198,124.641327 452.046021,124.762741 
	C449.649200,124.390274 447.252380,124.017807 444.334961,123.184174 
	C439.346588,120.431458 434.878754,118.139908 430.410950,115.848358 
	C430.092041,115.626709 429.773163,115.405052 429.208130,114.668808 
	C428.352539,113.752861 427.743073,113.351509 427.133606,112.950150 
	C426.846558,112.748177 426.559509,112.546211 426.163696,111.743858 
	C423.832123,108.398781 421.609314,105.654091 419.386475,102.909386 
	C419.032776,102.322365 418.679047,101.735359 418.269775,100.427742 
	C415.527740,90.669327 414.315491,81.472603 415.232574,72.046356 
z"/>
<path fill="#926CA8" opacity="1.000000" stroke="none" 
	d="
M400.937927,326.658417 
	C395.419861,326.883575 395.419861,326.883575 394.631439,322.683655 
	C399.852112,321.763550 404.318207,319.984833 402.808777,313.218658 
	C409.633514,309.969543 404.171295,307.048492 402.667297,303.900146 
	C402.138580,302.793396 402.165741,301.312256 402.273163,300.029999 
	C402.664673,295.355072 400.286804,291.634491 395.995941,289.830658 
	C394.858124,289.352325 393.233215,287.807373 393.342499,286.943176 
	C394.147614,280.576263 391.923157,274.010193 396.261566,267.788452 
	C399.538940,263.088318 397.548096,260.880341 391.824310,261.825317 
	C385.776642,262.823822 384.709930,257.808685 382.263123,254.064774 
	C380.550446,256.071198 378.974640,257.917236 377.131897,259.469025 
	C378.023834,256.611755 379.202820,254.057587 380.338165,251.484177 
	C385.259155,240.330139 390.167419,229.170456 395.080322,218.012848 
	C395.080353,218.012848 395.558655,217.933456 395.855225,218.297333 
	C398.108215,221.773102 400.064636,224.884964 402.021057,227.996826 
	C402.021057,227.996826 402.058258,228.449219 402.125122,228.980347 
	C402.787964,230.009552 403.383942,230.507599 403.979889,231.005661 
	C403.998657,231.433548 404.017456,231.861420 404.107422,232.908707 
	C404.762421,234.024246 405.346283,234.520386 405.930115,235.016525 
	C405.973541,235.738464 406.016998,236.460403 406.065674,237.924652 
	C407.041290,240.446060 408.011719,242.225174 408.982147,244.004272 
	C408.982147,244.004272 409.007294,244.486893 409.011963,245.088074 
	C409.639008,246.799271 410.261353,247.909286 410.883728,249.019302 
	C410.902588,249.462875 410.921417,249.906464 410.811096,250.878830 
	C411.085754,251.946625 411.489624,252.485626 411.893463,253.024643 
	C411.925659,254.085922 411.957886,255.147186 411.802551,256.827637 
	C411.759735,258.302734 411.904449,259.158691 412.049164,260.014648 
	C412.345673,262.085388 412.642151,264.156128 412.750854,266.913177 
	C413.012848,269.404663 413.462677,271.209839 413.912537,273.015015 
	C413.921509,275.048309 413.930511,277.081635 413.606201,279.701721 
	C413.165771,282.519684 413.058685,284.750916 412.951599,286.982117 
	C412.942566,287.427399 412.933533,287.872711 412.587524,288.810120 
	C410.927704,293.779205 408.287903,298.130219 410.941895,302.987427 
	C407.669708,310.797394 404.397491,318.607330 400.937927,326.658417 
z"/>
<path fill="#B290C8" opacity="1.000000" stroke="none" 
	d="
M473.997070,120.984016 
	C469.333496,119.114433 466.293518,115.833473 463.913239,111.320709 
	C462.286987,108.237442 459.524780,104.816895 456.458862,103.611771 
	C448.489868,100.479401 446.603210,93.039490 442.800568,86.893738 
	C439.249908,81.155197 435.993164,75.206238 432.063843,69.740379 
	C429.371307,65.994873 425.561798,64.449615 421.299438,68.855064 
	C420.224182,67.574791 419.318298,66.496178 418.169800,65.200333 
	C417.896912,64.812851 417.866638,64.642593 418.160828,64.100395 
	C418.744904,63.112030 419.004486,62.495613 419.264069,61.879196 
	C419.374146,61.512413 419.484192,61.145626 419.820679,60.257835 
	C420.047150,59.736828 420.060150,59.789982 420.060150,59.789982 
	C420.282257,59.380676 420.504364,58.971371 421.291656,58.237793 
	C423.553467,55.585087 425.250122,53.256649 426.946747,50.928215 
	C426.946747,50.928215 426.993958,50.994480 427.275635,50.928684 
	C428.031158,50.229958 428.504974,49.597027 428.978790,48.964104 
	C429.781616,48.297901 430.584442,47.631691 431.706116,47.009804 
	C433.006042,48.214920 433.807495,49.622131 435.000702,50.491852 
	C439.135071,53.505375 443.121582,56.279972 445.450043,61.373714 
	C447.315369,65.454330 450.672180,69.075897 454.010620,72.217255 
	C462.825165,80.511429 469.643494,90.107498 474.217377,101.262581 
	C476.676270,107.259529 480.853699,111.076317 487.390564,112.837570 
	C487.559296,113.182686 487.388458,113.463997 486.773071,113.851471 
	C486.069000,114.094765 485.939911,114.310051 485.941162,114.603500 
	C485.275787,115.257195 484.610443,115.910889 483.602966,116.709435 
	C483.260834,116.854294 483.176819,116.983665 483.176819,116.983673 
	C482.526794,117.480492 481.876740,117.977310 480.798035,118.602615 
	C480.369354,118.731102 480.169281,118.994186 480.169281,118.994186 
	C479.271973,119.543694 478.374695,120.093208 476.758911,120.705322 
	C475.359314,120.839943 474.678192,120.911980 473.997070,120.984016 
z"/>
<path fill="#AD89C1" opacity="1.000000" stroke="none" 
	d="
M286.001251,87.018723 
	C284.715027,86.290276 283.428833,85.561836 282.179932,84.854523 
	C282.866577,70.455452 292.786469,60.066101 297.986267,47.675358 
	C299.820404,43.304729 302.524109,39.299019 304.927734,34.808228 
	C306.746643,34.430248 308.468567,34.370735 310.606873,34.426182 
	C310.547943,39.899700 310.456146,45.326714 309.514648,50.602077 
	C307.747955,60.500927 309.469574,69.187561 316.229309,76.938301 
	C318.406982,79.435234 319.441132,82.929504 320.546021,86.441826 
	C308.729492,86.950325 297.365387,86.984520 286.001251,87.018723 
z"/>
<path fill="#9973AF" opacity="1.000000" stroke="none" 
	d="
M338.791107,368.405090 
	C346.897217,370.058472 355.024689,372.186768 363.216492,374.028656 
	C366.743896,374.821747 370.412689,375.380157 374.000641,375.300201 
	C375.289703,375.271454 376.497437,373.019409 377.802551,371.849304 
	C378.911774,370.854828 380.107727,369.957062 381.643250,369.011353 
	C379.106110,375.138153 376.191010,381.270172 372.810669,387.633728 
	C372.035126,387.940369 371.826019,388.128174 371.718079,388.428650 
	C371.334381,388.490601 370.950653,388.552551 370.276093,388.634033 
	C368.352325,388.100525 366.742249,387.153137 365.082916,387.057220 
	C352.543274,386.332214 344.562622,379.196472 338.791107,368.405090 
z"/>
<path fill="#89709B" opacity="1.000000" stroke="none" 
	d="
M415.036316,72.366638 
	C414.315491,81.472603 415.527740,90.669327 418.207703,100.087601 
	C414.000214,91.580391 411.697266,82.463074 415.036316,72.366638 
z"/>
<path fill="#9874AE" opacity="1.000000" stroke="none" 
	d="
M411.139526,302.697968 
	C408.287903,298.130219 410.927704,293.779205 412.575806,289.143982 
	C413.408661,290.194611 413.916199,291.403503 414.703125,292.802246 
	C413.767395,296.130920 412.552246,299.269714 411.139526,302.697968 
z"/>
<path fill="#9973AF" opacity="1.000000" stroke="none" 
	d="
M382.444336,368.248230 
	C380.092834,361.797180 380.719055,360.065369 386.991272,356.168823 
	C385.802551,360.083832 384.255920,364.030914 382.444336,368.248230 
z"/>
<path fill="#89709B" opacity="1.000000" stroke="none" 
	d="
M430.528778,116.146065 
	C434.878754,118.139908 439.346588,120.431458 443.968933,122.992996 
	C439.631165,120.989922 435.138885,118.716850 430.528778,116.146065 
z"/>
<path fill="#89709B" opacity="1.000000" stroke="none" 
	d="
M419.420959,103.243744 
	C421.609314,105.654091 423.832123,108.398781 426.062653,111.496475 
	C423.865387,109.092354 421.660431,106.335220 419.420959,103.243744 
z"/>
<path fill="#3D2162" opacity="1.000000" stroke="none" 
	d="
M167.383087,386.350525 
	C170.460052,388.004974 173.546310,389.998138 176.801117,392.262512 
	C172.137619,393.272369 168.946152,391.322632 167.383087,386.350525 
z"/>
<path fill="#89709B" opacity="1.000000" stroke="none" 
	d="
M452.378967,124.973480 
	C455.446198,124.641327 458.846405,124.519913 462.593689,124.577293 
	C459.531189,124.898811 456.121582,125.041519 452.378967,124.973480 
z"/>
<path fill="#89709B" opacity="1.000000" stroke="none" 
	d="
M497.502075,98.118164 
	C498.125031,94.945816 499.033386,91.571533 500.242126,88.036072 
	C499.624176,91.222000 498.705841,94.569115 497.502075,98.118164 
z"/>
<path fill="#957AA9" opacity="1.000000" stroke="none" 
	d="
M426.629211,51.026367 
	C425.250122,53.256649 423.553467,55.585087 421.529785,57.978119 
	C422.905701,55.736656 424.608673,53.430588 426.629211,51.026367 
z"/>
<path fill="#89709B" opacity="1.000000" stroke="none" 
	d="
M500.922211,85.640938 
	C500.605957,83.532089 500.473785,81.105713 500.542053,78.366173 
	C500.863739,80.476471 500.985016,82.899948 500.922211,85.640938 
z"/>
<path fill="#381D5B" opacity="1.000000" stroke="none" 
	d="
M124.079880,298.346130 
	C125.329559,300.107605 126.633347,302.213776 127.909485,304.713440 
	C126.632561,302.968262 125.383278,300.829529 124.079880,298.346130 
z"/>
<path fill="#AD8BC0" opacity="1.000000" stroke="none" 
	d="
M439.368225,184.486267 
	C435.181641,184.903854 436.172974,181.813065 436.126984,178.912292 
	C437.219696,180.344238 438.277924,182.232925 439.368225,184.486267 
z"/>
<path fill="#AD8BC0" opacity="1.000000" stroke="none" 
	d="
M446.854401,199.691147 
	C445.979279,198.689819 445.092102,197.377762 444.466064,195.874557 
	C445.432251,196.915741 446.137299,198.148071 446.854401,199.691147 
z"/>
<path fill="#AD8BC0" opacity="1.000000" stroke="none" 
	d="
M422.128632,150.563782 
	C419.566010,150.961197 418.755249,149.829147 419.961365,147.114594 
	C420.775269,147.936646 421.442627,149.081619 422.128632,150.563782 
z"/>
<path fill="#AD8BC0" opacity="1.000000" stroke="none" 
	d="
M444.232849,194.648315 
	C443.413788,193.802032 442.558777,192.621170 441.919189,191.192169 
	C442.821991,192.067261 443.509430,193.190491 444.232849,194.648315 
z"/>
<path fill="#AD8BC0" opacity="1.000000" stroke="none" 
	d="
M427.952759,161.674271 
	C427.199188,160.827347 426.426575,159.653244 425.822479,158.243210 
	C426.638611,159.120544 427.286194,160.233810 427.952759,161.674271 
z"/>
<path fill="#957AA9" opacity="1.000000" stroke="none" 
	d="
M434.912720,44.632797 
	C434.276947,45.286125 433.467804,46.197529 432.310486,47.039482 
	C432.887970,46.276978 433.813629,45.583927 434.912720,44.632797 
z"/>
<path fill="#89709B" opacity="1.000000" stroke="none" 
	d="
M497.319092,64.841698 
	C496.809631,64.066803 496.300415,62.985172 495.824341,61.590134 
	C496.344727,62.362801 496.832001,63.448879 497.319092,64.841698 
z"/>
<path fill="#89709B" opacity="1.000000" stroke="none" 
	d="
M499.320618,70.827507 
	C498.817749,69.935349 498.371857,68.722610 498.016968,67.176605 
	C498.531189,68.064529 498.954407,69.285728 499.320618,70.827507 
z"/>
<path fill="#89709B" opacity="1.000000" stroke="none" 
	d="
M500.660126,75.780121 
	C500.209686,75.229736 499.801666,74.355270 499.566437,73.266647 
	C500.060333,73.853668 500.381470,74.654854 500.660126,75.780121 
z"/>
<path fill="#89709B" opacity="1.000000" stroke="none" 
	d="
M495.046112,104.192902 
	C495.128448,103.295555 495.443451,102.235771 495.979950,101.006065 
	C495.893890,101.900917 495.586304,102.965691 495.046112,104.192902 
z"/>
<path fill="#89709B" opacity="1.000000" stroke="none" 
	d="
M419.061493,61.908524 
	C419.004486,62.495613 418.744904,63.112030 418.259125,63.860344 
	C418.308258,63.307446 418.583588,62.622650 419.061493,61.908524 
z"/>
<path fill="#AD8BC0" opacity="1.000000" stroke="none" 
	d="
M423.958557,153.685226 
	C423.352600,153.180328 422.724457,152.360077 422.106415,151.195587 
	C422.723114,151.690826 423.329712,152.530350 423.958557,153.685226 
z"/>
<path fill="#AD8BC0" opacity="1.000000" stroke="none" 
	d="
M434.991272,175.701096 
	C434.549103,175.465790 434.121521,174.932693 433.840454,174.203323 
	C434.326569,174.472473 434.666199,174.937897 434.991272,175.701096 
z"/>
<path fill="#AD8BC0" opacity="1.000000" stroke="none" 
	d="
M430.944153,167.673126 
	C430.445709,167.275818 429.923218,166.544373 429.466797,165.444275 
	C429.995300,165.830063 430.457672,166.584503 430.944153,167.673126 
z"/>
<path fill="#957AA9" opacity="1.000000" stroke="none" 
	d="
M428.688568,49.044174 
	C428.504974,49.597027 428.031158,50.229958 427.242615,50.904907 
	C427.418060,50.339371 427.908203,49.731815 428.688568,49.044174 
z"/>
<path fill="#89709B" opacity="1.000000" stroke="none" 
	d="
M473.961517,121.184669 
	C474.678192,120.911980 475.359314,120.839943 476.379761,120.816193 
	C475.945068,121.324249 475.171051,121.784027 474.122650,122.217209 
	C473.807037,121.915695 473.832916,121.647270 473.961517,121.184669 
z"/>
<path fill="#89709B" opacity="1.000000" stroke="none" 
	d="
M488.216980,112.815002 
	C488.368256,112.265747 488.808044,111.651871 489.541290,110.980637 
	C489.391632,111.532310 488.948547,112.141357 488.216980,112.815002 
z"/>
<path fill="#89709B" opacity="1.000000" stroke="none" 
	d="
M427.223633,113.215622 
	C427.743073,113.351509 428.352539,113.752861 429.037689,114.430618 
	C428.513458,114.298370 427.913574,113.889725 427.223633,113.215622 
z"/>
<path fill="#9C77B3" opacity="1.000000" stroke="none" 
	d="
M363.562866,34.913002 
	C363.287201,35.047817 362.878876,35.001411 362.306396,34.826347 
	C362.571564,34.709053 363.000854,34.720417 363.562866,34.913002 
z"/>
<path fill="#381D5B" opacity="1.000000" stroke="none" 
	d="
M127.904877,305.358398 
	C128.187958,305.593140 128.500900,306.147949 128.825119,307.035583 
	C128.535828,306.805084 128.235275,306.241791 127.904877,305.358398 
z"/>
<path fill="#3D2162" opacity="1.000000" stroke="none" 
	d="
M371.943665,388.454102 
	C371.826019,388.128174 372.035126,387.940369 372.562714,387.867371 
	C372.705231,388.201813 372.501648,388.405151 371.943665,388.454102 
z"/>
<path fill="#89709B" opacity="1.000000" stroke="none" 
	d="
M420.045288,59.734856 
	C420.060150,59.789982 420.047150,59.736828 420.065674,59.738270 
	C420.084167,59.739712 420.030396,59.679726 420.045288,59.734856 
z"/>
<path fill="#89709B" opacity="1.000000" stroke="none" 
	d="
M492.993408,107.422127 
	C492.862488,107.397324 492.893005,106.996010 493.008331,107.002457 
	C493.123657,107.008911 493.275269,107.227676 493.275269,107.227676 
	C493.275269,107.227676 493.124298,107.446930 492.993408,107.422127 
z"/>
<path fill="#89709B" opacity="1.000000" stroke="none" 
	d="
M492.065491,108.565651 
	C491.817902,108.321304 491.902100,108.106476 492.312256,107.914116 
	C492.575073,108.158630 492.494751,108.378159 492.065491,108.565651 
z"/>
<path fill="#89709B" opacity="1.000000" stroke="none" 
	d="
M486.135681,114.575020 
	C485.939911,114.310051 486.069000,114.094765 486.523071,113.929031 
	C486.717102,114.192932 486.587921,114.408302 486.135681,114.575020 
z"/>
<path fill="#89709B" opacity="1.000000" stroke="none" 
	d="
M483.208008,117.085556 
	C483.176819,116.983665 483.260834,116.854294 483.296692,116.881264 
	C483.332550,116.908234 483.239166,117.187447 483.208008,117.085556 
z"/>
<path fill="#89709B" opacity="1.000000" stroke="none" 
	d="
M480.231323,119.104599 
	C480.169281,118.994186 480.369354,118.731102 480.439209,118.799484 
	C480.509064,118.867859 480.529175,119.121094 480.529175,119.121094 
	C480.529175,119.121094 480.293365,119.215004 480.231323,119.104599 
z"/>
<path fill="#89709B" opacity="1.000000" stroke="none" 
	d="
M471.245026,123.161621 
	C471.149384,123.065971 471.415741,122.781799 471.511383,122.830040 
	C471.607025,122.878281 471.588806,123.148666 471.588806,123.148666 
	C471.588806,123.148666 471.340668,123.257278 471.245026,123.161621 
z"/>
<path fill="#89709B" opacity="1.000000" stroke="none" 
	d="
M467.218994,124.306053 
	C467.147430,124.007805 467.296082,123.891808 467.661713,123.896049 
	C467.788300,124.200783 467.641815,124.358116 467.218994,124.306053 
z"/>
<path fill="#000001" opacity="1.000000" stroke="none" 
	d="
M285.623016,87.169563 
	C297.365387,86.984520 308.729492,86.950325 320.551575,86.805649 
	C327.400848,86.396484 331.778473,88.579491 334.855194,94.847420 
	C348.339020,122.316757 362.293152,149.555237 376.075531,176.878052 
	C378.532135,181.748169 380.983154,186.621078 383.694946,192.113434 
	C386.260315,197.210754 388.567505,201.687363 390.874695,206.163956 
	C390.874695,206.163956 390.900513,206.084518 390.895020,206.361481 
	C391.157837,206.903336 391.426147,207.168228 391.694489,207.433121 
	C391.694489,207.433121 391.683655,207.463791 391.681335,207.479965 
	C392.800903,210.737946 393.922791,213.979767 395.062500,217.617203 
	C390.167419,229.170456 385.259155,240.330139 380.338165,251.484177 
	C379.202820,254.057587 378.023834,256.611755 376.797821,259.541138 
	C374.491119,264.025116 372.251526,268.142731 369.727600,272.788422 
	C369.271637,273.868195 369.100067,274.419922 368.690369,275.145020 
	C368.268524,275.866180 368.084778,276.413910 367.637085,277.180054 
	C361.600677,289.272308 355.828217,301.146179 349.796021,313.217896 
	C348.995331,314.593781 348.454407,315.771851 347.950623,316.962616 
	C347.987793,316.975342 347.939026,316.913757 347.657349,317.090088 
	C346.579437,318.844147 345.783234,320.421906 344.883087,322.073792 
	C344.779144,322.147949 344.907043,322.368958 344.634064,322.563385 
	C344.229614,323.175171 344.098114,323.592529 343.785034,324.163757 
	C343.603485,324.317596 343.474304,324.775696 343.474304,324.775696 
	C341.567566,328.218781 339.660828,331.661896 337.649200,335.448242 
	C336.816315,336.415161 336.088379,337.038818 334.928162,337.950867 
	C333.999084,338.502075 333.502197,338.764923 333.005310,339.027771 
	C330.213684,339.327454 327.423065,339.877686 324.630310,339.888672 
	C290.394287,340.023468 256.157928,340.079346 221.457184,340.231079 
	C216.301910,340.185760 211.611099,340.065002 206.260361,339.761963 
	C205.066406,339.369354 204.532394,339.159027 203.998398,338.948700 
	C201.017944,333.809265 197.774216,328.802551 195.104218,323.506592 
	C185.396255,304.250763 175.880295,284.898132 166.034058,264.956909 
	C164.226685,261.849396 162.677185,259.366974 161.127686,256.884583 
	C161.127670,256.884583 161.179138,256.850800 161.188171,256.820068 
	C156.276077,246.255722 151.331940,235.732758 146.446991,225.182358 
	C144.846161,221.724930 143.399048,218.196304 141.756149,214.333771 
	C146.824173,202.831131 151.826584,191.600967 157.249207,180.577499 
	C170.384705,153.874664 183.702393,127.261345 196.983551,100.630333 
	C198.908813,96.769829 201.036972,93.010498 203.196014,88.896889 
	C206.091217,88.208435 208.860001,87.510468 211.632355,87.496071 
	C236.169479,87.368629 260.707214,87.362427 285.623016,87.169563 
z"/>
<path fill="#AD8BC0" opacity="1.000000" stroke="none" 
	d="
M390.901794,205.749619 
	C388.567505,201.687363 386.260315,197.210754 383.938293,192.362915 
	C384.954468,192.450638 386.223328,193.549637 386.979340,193.268661 
	C393.900269,190.696304 391.457977,194.585068 390.682495,198.074463 
	C390.173798,200.363419 390.807068,202.906189 390.901794,205.749619 
z"/>
<path fill="#AD8BC0" opacity="1.000000" stroke="none" 
	d="
M433.638794,189.960999 
	C433.865479,189.805527 434.087799,189.797882 434.310120,189.790237 
	C434.306213,189.915588 434.302307,190.040924 434.298401,190.166260 
	C434.077087,190.147125 433.855743,190.127975 433.638794,189.960999 
z"/>
<path fill="#AD8BC0" opacity="1.000000" stroke="none" 
	d="
M391.615387,207.165955 
	C391.426147,207.168228 391.157837,206.903336 390.854553,206.351135 
	C391.058472,206.342133 391.297394,206.620453 391.615387,207.165955 
z"/>
<path fill="#381D5B" opacity="1.000000" stroke="none" 
	d="
M161.094360,257.288452 
	C162.677185,259.366974 164.226685,261.849396 165.827606,264.670715 
	C162.225830,263.918457 160.727631,261.408356 161.094360,257.288452 
z"/>
<path fill="#3D2162" opacity="1.000000" stroke="none" 
	d="
M204.056229,339.200989 
	C204.532394,339.159027 205.066406,339.369354 205.794586,339.797363 
	C205.363846,339.827789 204.738953,339.640564 204.056229,339.200989 
z"/>
<path fill="#9973AF" opacity="1.000000" stroke="none" 
	d="
M335.035767,357.391235 
	C337.087219,360.014069 342.964600,361.459137 338.760834,367.078644 
	C337.289886,364.106750 336.154877,360.945648 335.035767,357.391235 
z"/>
<path fill="#9973AF" opacity="1.000000" stroke="none" 
	d="
M333.001862,339.379517 
	C333.502197,338.764923 333.999084,338.502075 334.773315,338.194519 
	C334.862305,339.560059 334.673981,340.970215 334.285492,342.670410 
	C333.723022,341.884033 333.360718,340.807648 333.001862,339.379517 
z"/>
<path fill="#9874AE" opacity="1.000000" stroke="none" 
	d="
M401.995758,227.625122 
	C400.064636,224.884964 398.108215,221.773102 396.097656,218.300262 
	C398.019135,221.044006 399.994781,224.148712 401.995758,227.625122 
z"/>
<path fill="#9874AE" opacity="1.000000" stroke="none" 
	d="
M413.179291,286.666992 
	C413.058685,284.750916 413.165771,282.519684 413.591278,280.137268 
	C413.742157,282.108002 413.574585,284.229919 413.179291,286.666992 
z"/>
<path fill="#9874AE" opacity="1.000000" stroke="none" 
	d="
M408.968079,243.633270 
	C408.011719,242.225174 407.041290,240.446060 406.070984,238.286255 
	C407.032074,239.691116 407.993042,241.476700 408.968079,243.633270 
z"/>
<path fill="#9874AE" opacity="1.000000" stroke="none" 
	d="
M413.936462,272.616882 
	C413.462677,271.209839 413.012848,269.404663 412.768585,267.304688 
	C413.302917,268.746216 413.631653,270.482483 413.936462,272.616882 
z"/>
<path fill="#9874AE" opacity="1.000000" stroke="none" 
	d="
M410.904297,248.659561 
	C410.261353,247.909286 409.639008,246.799271 409.018311,245.329620 
	C409.654938,246.079941 410.289917,247.189880 410.904297,248.659561 
z"/>
<path fill="#9874AE" opacity="1.000000" stroke="none" 
	d="
M412.224854,259.789368 
	C411.904449,259.158691 411.759735,258.302734 411.800018,257.225830 
	C412.123505,257.857941 412.262024,258.710999 412.224854,259.789368 
z"/>
<path fill="#9874AE" opacity="1.000000" stroke="none" 
	d="
M405.862488,234.722183 
	C405.346283,234.520386 404.762421,234.024246 404.110657,233.229919 
	C404.626770,233.430435 405.210785,233.929138 405.862488,234.722183 
z"/>
<path fill="#9874AE" opacity="1.000000" stroke="none" 
	d="
M403.901001,230.713333 
	C403.383942,230.507599 402.787964,230.009552 402.129120,229.207275 
	C402.651520,229.409058 403.236816,229.915024 403.901001,230.713333 
z"/>
<path fill="#9874AE" opacity="1.000000" stroke="none" 
	d="
M411.863281,252.739609 
	C411.489624,252.485626 411.085754,251.946625 410.818878,251.211731 
	C411.248260,251.495407 411.540649,251.974991 411.863281,252.739609 
z"/>
<path fill="#9873AE" opacity="1.000000" stroke="none" 
	d="
M350.055786,313.020050 
	C355.828217,301.146179 361.600677,289.272308 367.894531,277.130432 
	C368.586792,276.232147 368.757629,275.601868 368.928467,274.971619 
	C369.100067,274.419922 369.271637,273.868195 369.683411,273.147400 
	C371.697723,272.103088 373.471832,271.227875 375.314026,270.319092 
	C379.737701,278.122589 382.679749,287.043304 381.868561,296.470184 
	C380.271637,315.028259 371.001099,327.950378 349.779907,327.270599 
	C348.218262,327.220551 346.632446,327.924133 344.921051,328.308044 
	C344.600647,327.272308 344.274567,326.218292 343.711395,324.969971 
	C343.474304,324.775696 343.603485,324.317596 343.988953,323.920319 
	C344.551971,323.138336 344.729492,322.753662 344.907043,322.368958 
	C344.907043,322.368958 344.779144,322.147949 345.213593,321.966248 
	C346.411682,320.160919 347.175354,318.537323 347.939026,316.913757 
	C347.939026,316.913757 347.987793,316.975342 348.256195,316.894104 
	C349.034973,315.548584 349.545380,314.284332 350.055786,313.020050 
z"/>
<path fill="#956FAB" opacity="1.000000" stroke="none" 
	d="
M347.657349,317.090088 
	C347.175354,318.537323 346.411682,320.160919 345.317535,321.892090 
	C345.783234,320.421906 346.579437,318.844147 347.657349,317.090088 
z"/>
<path fill="#956FAB" opacity="1.000000" stroke="none" 
	d="
M349.796021,313.217896 
	C349.545380,314.284332 349.034973,315.548584 348.219055,316.881378 
	C348.454407,315.771851 348.995331,314.593781 349.796021,313.217896 
z"/>
<path fill="#956FAB" opacity="1.000000" stroke="none" 
	d="
M368.690369,275.145020 
	C368.757629,275.601868 368.586792,276.232147 368.158478,276.912048 
	C368.084778,276.413910 368.268524,275.866180 368.690369,275.145020 
z"/>
<path fill="#956FAB" opacity="1.000000" stroke="none" 
	d="
M344.634064,322.563385 
	C344.729492,322.753662 344.551971,323.138336 344.170532,323.766479 
	C344.098114,323.592529 344.229614,323.175171 344.634064,322.563385 
z"/>
</svg>